<?xml version="1.0" encoding="UTF-8"?>
<svg id="Layer_1" data-name="Layer 1" xmlns="http://www.w3.org/2000/svg" viewBox="0 0 411 400.59">
  <defs>
    <style>
      .cls-1 {
        fill: none;
      }

      .cls-1, .cls-2, .cls-3, .cls-4, .cls-5 {
        stroke: #000;
        stroke-miterlimit: 10;
      }

      .cls-2, .cls-5 {
        fill: #ed1c24;
      }

      .cls-3, .cls-4 {
        fill: #22b573;
      }

      .cls-4, .cls-5 {
        stroke-width: 4px;
      }

      .cls-6 {
        fill: #10284b;
      }
    </style>
  </defs>
  <path class="cls-3" d="M25.5,204.51c0-51.71,21.93-98.4,56.97-131.26l9.83-39.57c-2.45,1.63-4.87,3.31-7.25,5.04C33.84,76.03.5,136.45.5,204.52c0,22.1,3.52,43.4,10.02,63.35,3.94,12.09,8.97,23.69,14.98,34.68l9.8-39.45c-6.34-18.38-9.8-38.09-9.8-58.59Z"/>
  <g>
    <path class="cls-6" d="M205.5,374.01c-93.46,0-169.5-76.04-169.5-169.5S112.04,35.01,205.5,35.01s169.5,76.04,169.5,169.5-76.04,169.5-169.5,169.5Z"/>
    <path d="M205.5,35.51c45.14,0,87.58,17.58,119.5,49.5,31.92,31.92,49.5,74.36,49.5,119.5s-17.58,87.58-49.5,119.5c-31.92,31.92-74.36,49.5-119.5,49.5s-87.58-17.58-119.5-49.5-49.5-74.36-49.5-119.5,17.58-87.58,49.5-119.5c31.92-31.92,74.36-49.5,119.5-49.5M205.5,34.51c-93.89,0-170,76.11-170,170s76.11,170,170,170,170-76.11,170-170S299.39,34.51,205.5,34.51h0Z"/>
  </g>
  <path class="cls-3" d="M325.95,38.72c-2.38-1.73-4.79-3.41-7.25-5.04l9.83,39.58c35.04,32.86,56.97,79.54,56.97,131.25,0,19.81-3.22,38.89-9.16,56.73-.21.62-.43,1.24-.64,1.86l9.8,39.45c6.01-10.99,11.04-22.59,14.98-34.68,6.5-19.96,10.02-41.25,10.02-63.35,0-68.06-33.34-128.49-84.55-165.79Z"/>
  <line class="cls-4" x1="35.5" y1="204.51" x2="25.5" y2="204.51"/>
  <line class="cls-4" x1="49.21" y1="138.97" x2="39.15" y2="135.76"/>
  <line class="cls-4" x1="361.82" y1="138.61" x2="371.85" y2="135.76"/>
  <line class="cls-4" x1="375.5" y1="204.51" x2="385.5" y2="204.51"/>
  <circle class="cls-2" cx="205.5" cy="204.51" r="150"/>
  <path class="cls-3" d="M267.46,10.48l-7.73,23.8c-17.52-5.7-36.22-8.78-55.64-8.78s-38.1,3.08-55.63,8.77h0s-7.73-23.79-7.73-23.79C160.68,4.01,181.98.5,204.09.5s43.41,3.51,63.37,9.98Z"/>
  <path class="cls-3" d="M369.95,326.01c-24.84,34.13-59.96,60.29-100.8,73.95l-.3-.9-7.44-22.88c35.78-12.01,66.54-34.96,88.31-64.87h.01l20.21,14.69h.01Z"/>
  <path class="cls-3" d="M149.86,375.33l-7.71,23.73v.05c-41.58-13.49-77.32-39.91-102.51-74.51h.01s20.21-14.7,20.21-14.7c22.12,30.38,53.5,53.58,90,65.43Z"/>
  <line class="cls-1" x1="259.73" y1="34.28" x2="259.6" y2="34.67"/>
  <line class="cls-1" x1="59.88" y1="309.89" x2="59.86" y2="309.9"/>
  <line class="cls-1" x1="149.99" y1="374.93" x2="149.86" y2="375.33"/>
  <line class="cls-1" x1="261.41" y1="376.18" x2="261.01" y2="374.93"/>
  <line class="cls-5" x1="205.5" y1="34.51" x2="205.5" y2="25.51"/>
  <line class="cls-5" x1="103.37" y1="340.35" x2="97.6" y2="348.18"/>
  <line class="cls-5" x1="302.85" y1="343.65" x2="309.67" y2="351.29"/>
</svg>